<svg width="10" height="8" viewBox="0 0 10 8" fill="none" xmlns="http://www.w3.org/2000/svg">
<path d="M3.56005 7.38666C3.4725 7.38675 3.38578 7.36954 3.3049 7.33602C3.22401 7.3025 3.15055 7.25333 3.08872 7.19133L0.528721 4.63133C0.465047 4.56983 0.414259 4.49627 0.37932 4.41493C0.344381 4.3336 0.32599 4.24612 0.32522 4.1576C0.324451 4.06908 0.341319 3.98129 0.37484 3.89936C0.40836 3.81743 0.457862 3.74299 0.520457 3.6804C0.583052 3.6178 0.657487 3.5683 0.739418 3.53478C0.821349 3.50126 0.909135 3.48439 0.997655 3.48516C1.08617 3.48593 1.17365 3.50432 1.25499 3.53926C1.33633 3.5742 1.40989 3.62499 1.47139 3.68866L3.56005 5.77733L8.52872 0.808662C8.65446 0.687223 8.82286 0.620027 8.99765 0.621546C9.17245 0.623065 9.33966 0.693178 9.46327 0.816783C9.58687 0.940389 9.65699 1.1076 9.6585 1.28239C9.66002 1.45719 9.59283 1.62559 9.47139 1.75133L4.03139 7.19133C3.96956 7.25333 3.8961 7.3025 3.81521 7.33602C3.73432 7.36954 3.64761 7.38675 3.56005 7.38666Z" fill="#171717"/>
</svg>
